<svg xmlns="http://www.w3.org/2000/svg" xmlns:xlink="http://www.w3.org/1999/xlink" width="186.628" height="31.878" viewBox="0 0 186.628 31.878">
  <defs>
    <clipPath id="clip-path">
      <rect id="Rectangle_607" data-name="Rectangle 607" width="186.628" height="31.878" fill="none"/>
    </clipPath>
  </defs>
  <g id="Group_456" data-name="Group 456" transform="translate(-818.778 -174.35)">
    <g id="Group_135" data-name="Group 135" transform="translate(818.778 174.35)" clip-path="url(#clip-path)">
      <path id="Path_521" data-name="Path 521" d="M847.268,188.909c2.989,6.257,2.1,11.581-2.287,12.551-4.875,1.077-12.011-3.677-16.271-10.8a9.581,9.581,0,0,1-2.911.295l-.724-.1.269.464c4.506,7.524,13.013,12.639,18.893,11.338,5.456-1.207,7.26-7.8,3.884-14.343Z" transform="translate(-818.788 -174.372)" fill="#fff"/>
      <path id="Path_522" data-name="Path 522" d="M840.487,180.1c-3.662-3.124-7.752-4.771-10.855-4.087a4.018,4.018,0,0,0-3.271,2.766,27.629,27.629,0,0,0-2.845,2.552c-.621-1.594-.7-1.836-.7-1.83a6.707,6.707,0,0,1,5.1-4.241c3.857-.9,8.662.81,12.823,4.06Z" transform="translate(-818.784 -174.351)" fill="#fff"/>
      <path id="Path_523" data-name="Path 523" d="M833.554,184.043c0-2.4-1.993-4.44-4.789-5.235a41.847,41.847,0,0,0-5.605,5.073,11.148,11.148,0,0,1-2.042-3.922,5.07,5.07,0,0,0-2.339,4.084c0,3.085,3.308,5.587,7.386,5.587s7.389-2.5,7.389-5.587" transform="translate(-818.778 -174.357)" fill="#fff"/>
      <path id="Path_524" data-name="Path 524" d="M847.219,188.726a6.631,6.631,0,0,1-3.4.948,3.826,3.826,0,0,1-2.911-1.211l-1.092,3.812-2.825,1.068,4.149-14.477h2.517l-.289,1.009a7.119,7.119,0,0,1,3.735-1.23c2.788,0,4.513,1.653,3.356,5.686a7.336,7.336,0,0,1-3.243,4.394m-1.13-8.164a5.755,5.755,0,0,0-3.326,1.35l-1.277,4.457a3.2,3.2,0,0,0,2.638,1.39c1.827,0,3.137-1.129,3.778-3.368.764-2.661.062-3.829-1.813-3.829" transform="translate(-818.807 -174.357)" fill="#fff"/>
      <path id="Path_525" data-name="Path 525" d="M860.074,189.446l1.717-5.989c.611-2.137-.157-2.9-1.834-2.9a3.432,3.432,0,0,0-3.439,2.7l-1.774,6.19H852.2l3.9-13.608,2.855-1.089-1.468,5.122a5.681,5.681,0,0,1,3.61-1.23c3.011,0,4.155,1.612,3.259,4.736l-1.74,6.069Z" transform="translate(-818.831 -174.351)" fill="#fff"/>
      <path id="Path_526" data-name="Path 526" d="M873.721,189.452l.3-1.047a7.351,7.351,0,0,1-3.919,1.269c-2.1,0-4.215-.966-3.469-3.568.676-2.359,3.2-3.428,6.141-3.428a7.581,7.581,0,0,1,2.771.4l.227-.785c.33-1.15-.349-1.8-1.929-1.8a9.085,9.085,0,0,0-3.572.665l-.537-1.574a11.228,11.228,0,0,1,4.715-.947c2.888,0,4.534,1.149,3.846,3.547l-2.081,7.259Zm1.293-4.516a6.626,6.626,0,0,0-2.828-.463c-1.629,0-2.839.605-3.117,1.573-.3,1.048.312,1.753,1.991,1.753a5.869,5.869,0,0,0,3.521-1.35Z" transform="translate(-818.853 -174.357)" fill="#fff"/>
      <path id="Path_527" data-name="Path 527" d="M889.322,181.064a3.779,3.779,0,0,0-1.839-.382,3.341,3.341,0,0,0-3.322,2.723l-1.733,6.047h-2.544l3.034-10.585h2.543l-.29,1.009a5.159,5.159,0,0,1,3.315-1.23,3.661,3.661,0,0,1,2.07.443Z" transform="translate(-818.874 -174.357)" fill="#fff"/>
      <path id="Path_528" data-name="Path 528" d="M905.274,189.452l1.717-5.989c.611-2.137.017-2.9-1.662-2.9a3.252,3.252,0,0,0-3.267,2.7l-1.773,6.19h-2.544l1.716-5.989c.613-2.137.018-2.9-1.659-2.9a3.252,3.252,0,0,0-3.268,2.7l-1.774,6.19h-2.542l3.032-10.585h2.543l-.29,1.009a5.206,5.206,0,0,1,3.438-1.23c1.751,0,2.708.543,3.11,1.552a6.466,6.466,0,0,1,4.419-1.552c3.011,0,3.98,1.612,3.085,4.737l-1.739,6.069Z" transform="translate(-818.891 -174.357)" fill="#fff"/>
      <path id="Path_529" data-name="Path 529" d="M918.929,189.452l.3-1.047a7.347,7.347,0,0,1-3.917,1.269c-2.1,0-4.215-.966-3.472-3.568.678-2.359,3.2-3.428,6.142-3.428a7.583,7.583,0,0,1,2.772.4l.226-.785c.33-1.15-.349-1.8-1.93-1.8a9.093,9.093,0,0,0-3.572.665l-.537-1.574a11.242,11.242,0,0,1,4.717-.947c2.888,0,4.533,1.149,3.845,3.547l-2.08,7.259Zm1.3-4.516a6.634,6.634,0,0,0-2.83-.463c-1.628,0-2.839.605-3.116,1.573-.3,1.048.311,1.753,1.991,1.753a5.867,5.867,0,0,0,3.521-1.35Z" transform="translate(-818.924 -174.357)" fill="#fff"/>
      <path id="Path_530" data-name="Path 530" d="M935.4,181.911a3.484,3.484,0,0,0-2.789-1.291c-1.852,0-3.424,1.353-4.043,3.509-.6,2.077.064,3.568,2.088,3.568a5.493,5.493,0,0,0,3.313-1.31l1.253,1.31a7.886,7.886,0,0,1-5.208,1.976c-3.159,0-4.978-2.177-4.03-5.483a7.561,7.561,0,0,1,7.265-5.545,4.71,4.71,0,0,1,4.077,1.8Z" transform="translate(-818.947 -174.357)" fill="#fff"/>
      <path id="Path_531" data-name="Path 531" d="M941.024,193.182h-2.69l3-3.931-1.788-10.385h2.79l.637,5.182a26.384,26.384,0,0,1,.253,3.085c.4-.625,1.378-2.137,2.032-3.043l3.694-5.224h2.69Z" transform="translate(-818.967 -174.357)" fill="#fff"/>
      <path id="Path_532" data-name="Path 532" d="M961.013,181.911a3.484,3.484,0,0,0-2.791-1.291c-1.85,0-3.421,1.353-4.042,3.509-.6,2.077.065,3.568,2.089,3.568a5.488,5.488,0,0,0,3.312-1.31l1.253,1.31a7.883,7.883,0,0,1-5.207,1.976c-3.16,0-4.978-2.177-4.032-5.483a7.564,7.564,0,0,1,7.268-5.545,4.713,4.713,0,0,1,4.077,1.8Z" transform="translate(-818.987 -174.357)" fill="#fff"/>
      <path id="Path_533" data-name="Path 533" d="M963.73,189.446l3.9-13.608,2.852-1.089-4.212,14.7Z" transform="translate(-819.007 -174.351)" fill="#fff"/>
      <path id="Path_534" data-name="Path 534" d="M970.281,189.447l3.033-10.585h2.541l-3.033,10.585Zm4.711-11.955c-.915,0-1.481-.605-1.273-1.331a2.162,2.162,0,0,1,2.041-1.351c.889,0,1.456.6,1.241,1.351a2.153,2.153,0,0,1-2.009,1.331" transform="translate(-819.017 -174.351)" fill="#fff"/>
      <path id="Path_535" data-name="Path 535" d="M987.015,181.911a3.478,3.478,0,0,0-2.79-1.291c-1.85,0-3.422,1.353-4.042,3.509-.595,2.077.064,3.568,2.088,3.568a5.494,5.494,0,0,0,3.314-1.31l1.252,1.31a7.884,7.884,0,0,1-5.206,1.976c-3.161,0-4.979-2.177-4.031-5.483a7.56,7.56,0,0,1,7.265-5.545,4.715,4.715,0,0,1,4.078,1.8Z" transform="translate(-819.028 -174.357)" fill="#fff"/>
      <path id="Path_536" data-name="Path 536" d="M993.622,189.674a8.17,8.17,0,0,1-4.574-1.351l1.61-1.572a6.308,6.308,0,0,0,3.477,1.046c1.6,0,2.49-.421,2.7-1.168.232-.806-.795-1.189-2.5-1.775-2.534-.887-3.327-1.652-2.848-3.327.544-1.894,2.654-2.881,5.244-2.881a7.163,7.163,0,0,1,4.059,1.169l-1.566,1.592a5.241,5.241,0,0,0-3.1-.907c-1.232,0-1.893.4-2.053.966-.151.524.184.909,1.955,1.534,2.628.907,3.925,1.552,3.352,3.548-.671,2.339-3.217,3.124-5.759,3.124" transform="translate(-819.047 -174.357)" fill="#fff"/>
      <path id="Path_537" data-name="Path 537" d="M1003.63,182.549a2.064,2.064,0,1,1,2.064-2.064,1.991,1.991,0,0,1-2.064,2.064m0-3.866a1.8,1.8,0,1,0,1.784,1.8,1.735,1.735,0,0,0-1.784-1.8m.386,1.928.511.977h-.355l-.491-.955h-.49v.955h-.3v-2.28h.927c.412,0,.731.2.731.656a.632.632,0,0,1-.527.647m-.22-1.035h-.606v.773h.57c.327,0,.481-.121.481-.384s-.16-.388-.445-.388" transform="translate(-819.066 -174.356)" fill="#fff"/>
      <path id="Path_538" data-name="Path 538" d="M936.546,204.293a.2.2,0,0,1-.2-.153l-.483-1.357h-2.085l-.446,1.357a.185.185,0,0,1-.2.153H932.8c-.13,0-.187-.084-.144-.213l1.723-5.015a.206.206,0,0,1,.195-.154l.476-.014a.189.189,0,0,1,.2.145l1.839,5.038c.043.129-.007.213-.145.213ZM935,200.332c-.144-.409-.209-.621-.217-.652-.007.007-.064.221-.2.661l-.613,1.858h1.694Z" transform="translate(-818.958 -174.389)" fill="#fff"/>
      <path id="Path_539" data-name="Path 539" d="M940.273,204.3a.153.153,0,0,1-.166-.175v-1.813c0-.153-.008-.334-.015-.463-.036-.5-.267-.843-.786-.843a1.212,1.212,0,0,0-.887.433v2.686a.153.153,0,0,1-.166.175h-.325a.152.152,0,0,1-.166-.175v-3.445a.163.163,0,0,1,.151-.183l.282-.03a.143.143,0,0,1,.173.152l.008.319a1.372,1.372,0,0,1,1.117-.524,1.138,1.138,0,0,1,1.132.721,2.967,2.967,0,0,1,.137,1.085v1.9c0,.114-.058.175-.159.175Z" transform="translate(-818.966 -174.391)" fill="#fff"/>
      <path id="Path_540" data-name="Path 540" d="M946.726,204.293a.2.2,0,0,1-.2-.153l-.483-1.357h-2.085l-.446,1.357a.185.185,0,0,1-.2.153h-.338c-.131,0-.188-.084-.145-.213l1.723-5.015a.206.206,0,0,1,.195-.154l.476-.014a.189.189,0,0,1,.2.145l1.839,5.038c.043.129-.007.213-.144.213Zm-1.551-3.962c-.144-.409-.209-.621-.217-.652-.007.007-.064.221-.2.661l-.613,1.858h1.694Z" transform="translate(-818.974 -174.389)" fill="#fff"/>
      <path id="Path_541" data-name="Path 541" d="M949.22,204.377a3.786,3.786,0,0,1-1.118-.167c-.166-.061-.2-.107-.187-.236a4.855,4.855,0,0,0,.029-.577v-4.75a.16.16,0,0,1,.152-.174l.331-.031c.108-.015.173.046.173.16v1.821a4.044,4.044,0,0,1-.029.531,1.347,1.347,0,0,1,1.117-.546c.837,0,1.515.645,1.515,1.882a1.877,1.877,0,0,1-1.983,2.087m.317-3.385a1.184,1.184,0,0,0-.937.463v1.767a2.766,2.766,0,0,1-.022.471,2.145,2.145,0,0,0,.729.129c.743,0,1.218-.5,1.218-1.434,0-.971-.489-1.4-.987-1.4" transform="translate(-818.982 -174.388)" fill="#fff"/>
      <path id="Path_542" data-name="Path 542" d="M953.429,204.377a3.787,3.787,0,0,1-1.118-.167c-.166-.061-.2-.107-.187-.236a4.872,4.872,0,0,0,.029-.577v-4.75a.16.16,0,0,1,.152-.174l.331-.031c.108-.015.173.046.173.16v1.821a4,4,0,0,1-.029.531,1.348,1.348,0,0,1,1.117-.546c.837,0,1.515.645,1.515,1.882a1.877,1.877,0,0,1-1.983,2.087m.318-3.385a1.185,1.185,0,0,0-.938.463v1.767a2.8,2.8,0,0,1-.022.471,2.144,2.144,0,0,0,.729.129c.743,0,1.218-.5,1.218-1.434,0-.971-.489-1.4-.987-1.4" transform="translate(-818.988 -174.388)" fill="#fff"/>
      <path id="Path_543" data-name="Path 543" d="M958.769,204.134a.2.2,0,0,1-.195.152l-.5.015a.2.2,0,0,1-.21-.144l-1.788-5.039c-.043-.129.008-.213.137-.213h.4a.2.2,0,0,1,.2.152l1.536,4.455,1.5-4.455a.183.183,0,0,1,.195-.152h.339c.13,0,.181.084.145.213Z" transform="translate(-818.995 -174.389)" fill="#fff"/>
      <path id="Path_544" data-name="Path 544" d="M962.092,199.2a.434.434,0,0,1-.446.455.42.42,0,0,1-.44-.463.443.443,0,1,1,.887.008m-.6,5.092a.153.153,0,0,1-.166-.175v-3.408a.165.165,0,0,1,.152-.174l.331-.031a.144.144,0,0,1,.173.16v3.453a.153.153,0,0,1-.166.175Z" transform="translate(-819.003 -174.388)" fill="#fff"/>
      <path id="Path_545" data-name="Path 545" d="M965.787,202.392h-2.279a1.268,1.268,0,0,0,1.356,1.411,3.3,3.3,0,0,0,1-.2c.079,0,.116.045.116.167l-.008.167a.213.213,0,0,1-.13.2,2.557,2.557,0,0,1-1.052.235,1.818,1.818,0,0,1-1.926-2.034,1.722,1.722,0,0,1,1.7-1.935c.866,0,1.457.645,1.406,1.821a.167.167,0,0,1-.173.168m-1.327-1.488a.971.971,0,0,0-.938,1.009l1.788-.008c.007-.622-.339-1-.851-1" transform="translate(-819.005 -174.391)" fill="#fff"/>
      <path id="Path_546" data-name="Path 546" d="M972.5,203.823a.2.2,0,0,1-.144.2,3.81,3.81,0,0,1-1.559.341,2.9,2.9,0,0,1-1.744-.493A2.745,2.745,0,0,1,968,201.615a2.7,2.7,0,0,1,1-2.246,2.89,2.89,0,0,1,1.81-.538,3.846,3.846,0,0,1,1.421.266.185.185,0,0,1,.137.212l-.029.274c-.015.122-.072.152-.144.152a4.761,4.761,0,0,0-1.414-.266,1.906,1.906,0,0,0-2.056,2.1,2.026,2.026,0,0,0,2.128,2.155,4.747,4.747,0,0,0,1.558-.341c.08,0,.123.053.116.168Z" transform="translate(-819.013 -174.389)" fill="#fff"/>
      <path id="Path_547" data-name="Path 547" d="M975.275,204.372a2,2,0,0,1,.072-3.97,1.694,1.694,0,0,1,1.7,1.9,1.832,1.832,0,0,1-1.773,2.072m.014-3.408c-.635,0-1.089.478-1.089,1.366,0,.827.426,1.48,1.075,1.48h.058c.612,0,1.045-.569,1.045-1.449,0-.812-.4-1.4-1.089-1.4" transform="translate(-819.022 -174.391)" fill="#fff"/>
      <path id="Path_548" data-name="Path 548" d="M982.794,204.3a.152.152,0,0,1-.166-.175v-1.813c0-.153-.008-.334-.015-.463-.036-.5-.274-.843-.786-.843a1.167,1.167,0,0,0-.916.478,3.607,3.607,0,0,1,.043.66v1.981a.153.153,0,0,1-.166.175h-.324c-.1,0-.159-.061-.159-.175v-1.882c0-.084,0-.289-.021-.493a.743.743,0,0,0-.773-.744,1.213,1.213,0,0,0-.887.433v2.686a.153.153,0,0,1-.166.175h-.324a.153.153,0,0,1-.166-.175v-3.445a.164.164,0,0,1,.152-.183l.281-.03a.144.144,0,0,1,.173.152l.008.319a1.373,1.373,0,0,1,1.117-.524,1.128,1.128,0,0,1,1.06.615,1.508,1.508,0,0,1,1.24-.615,1.158,1.158,0,0,1,1.147.721,2.967,2.967,0,0,1,.137,1.085v1.9a.153.153,0,0,1-.166.175Z" transform="translate(-819.029 -174.391)" fill="#fff"/>
      <path id="Path_549" data-name="Path 549" d="M987.619,202.292a1.877,1.877,0,0,1-1.983,2.087,2.019,2.019,0,0,1-.621-.083v1.722a.152.152,0,0,1-.166.175h-.324a.153.153,0,0,1-.166-.175v-5.343a.157.157,0,0,1,.152-.175l.289-.03a.135.135,0,0,1,.174.144l.006.349a1.358,1.358,0,0,1,1.125-.554c.837,0,1.515.645,1.515,1.882m-.678.1c0-.971-.49-1.4-.987-1.4a1.189,1.189,0,0,0-.938.463v2.23a1.853,1.853,0,0,0,.707.137c.743,0,1.219-.5,1.219-1.434" transform="translate(-819.039 -174.391)" fill="#fff"/>
      <path id="Path_550" data-name="Path 550" d="M988.3,203.37c0-.577.39-1.252,2.121-1.275v-.129a1.733,1.733,0,0,0-.072-.608.678.678,0,0,0-.7-.378,3.056,3.056,0,0,0-1,.243c-.065,0-.1-.046-.116-.144l-.014-.168a.231.231,0,0,1,.145-.251,2.45,2.45,0,0,1,1.052-.25,1.213,1.213,0,0,1,1.176.554,2,2,0,0,1,.173,1.008v1.389c0,.372.094.486.374.509.137.022.181.076.174.182l-.008.114a.171.171,0,0,1-.151.182,1.816,1.816,0,0,1-.282.015.62.62,0,0,1-.656-.447,1.5,1.5,0,0,1-1.111.463,1.011,1.011,0,0,1-1.1-1.009m2.121.129v-.911c-1.168-.023-1.493.364-1.493.713,0,.3.224.547.642.547a1.233,1.233,0,0,0,.851-.349" transform="translate(-819.045 -174.391)" fill="#fff"/>
      <path id="Path_551" data-name="Path 551" d="M994.826,204.3a.153.153,0,0,1-.167-.175v-1.813c0-.153-.007-.334-.015-.463-.036-.5-.267-.843-.786-.843a1.215,1.215,0,0,0-.887.433v2.686a.152.152,0,0,1-.166.175h-.325c-.109,0-.165-.061-.165-.175v-3.445a.162.162,0,0,1,.15-.183l.281-.03a.143.143,0,0,1,.173.152l.008.319a1.373,1.373,0,0,1,1.117-.524,1.138,1.138,0,0,1,1.132.721,2.948,2.948,0,0,1,.137,1.085v1.9c0,.114-.058.175-.159.175Z" transform="translate(-819.052 -174.391)" fill="#fff"/>
      <path id="Path_552" data-name="Path 552" d="M999.294,200.479a.143.143,0,0,1,.151.183,13.713,13.713,0,0,1-.432,1.98,7.476,7.476,0,0,1-1.074,2.353,3.9,3.9,0,0,1-1.587,1.236.149.149,0,0,1-.216-.1l-.1-.258a.145.145,0,0,1,.087-.22,3.075,3.075,0,0,0,1.3-.994c-.628-1.541-1.255-3.416-1.443-3.984-.036-.122.015-.2.13-.2h.4a.18.18,0,0,1,.188.145c.144.47.67,2.178,1.146,3.422a8.816,8.816,0,0,0,.591-1.6,15.664,15.664,0,0,0,.36-1.806.16.16,0,0,1,.166-.16Z" transform="translate(-819.058 -174.391)" fill="#fff"/>
    </g>
  </g>
</svg>
